# AST/ASF file generated using VICON BodyLanguage
# -----------------------------------------------
:version 1.10
:name VICON
:units
  mass 1.0
  length 0.45
  angle deg
:documentation
   .ast/.asf automatically generated from VICON data using
   VICON BodyBuilder and BodyLanguage model FoxedUp or BRILLIANT.MOD
:root
   order TX TY TZ RX RY RZ
   axis XYZ
   position 0 0 0  
   orientation 0 0 0 
:bonedata
  begin
     id 1 
     name lhipjoint
     direction 0.584852 -0.759097 0.285867 
     length 2.43633 
     axis 0 0 0  XYZ
  end
  begin
     id 2 
     name lfemur
     direction 0.34202 -0.939693 0  
     length 7.14704  
     axis 0 0 20  XYZ
    dof rx ry rz
    limits (-160.0 20.0)
           (-70.0 70.0)
           (-60.0 70.0)
  end
  begin
     id 3 
     name ltibia
     direction 0.342022 -0.939692 0   
     length 7.68483   
     axis 0 0 20   XYZ
    dof rx
    limits (-10.0 170.0)
  end
  begin
     id 4 
     name lfoot
     direction 0.0999605 -0.274639 0.956337   
     length 2.40452   
     axis -90 7.62852e-016 20   XYZ
    dof rx rz
    limits (-45.0 90.0)
           (-70.0 20.0)
  end
  begin
     id 5 
     name ltoes
     direction 1.53468e-011 -4.21881e-011 1   
     length 1.19837   
     axis -90 7.62852e-016 20   XYZ
    dof rx
    limits (-90.0 20.0)
  end
  begin
     id 6 
     name rhipjoint
     direction -0.569886 -0.769002 0.289597   
     length 2.40495  
     axis 0 0 0  XYZ 
  end
  begin
     id 7 
     name rfemur
     direction -0.34202 -0.939693 0   
     length 7.45086   
     axis 0 0 -20   XYZ
    dof rx ry rz
    limits (-160.0 20.0)
           (-70.0 70.0)
           (-70.0 60.0)
  end
  begin
     id 8 
     name rtibia
     direction -0.34202 -0.939693 0   
     length 7.76831   
     axis 0 0 -20   XYZ
    dof rx
    limits (-10.0 170.0)
 end
 begin
     id 9 
     name rfoot
     direction -0.0798572 -0.219406 0.97236   
     length 2.35911  
     axis -90 -7.62852e-016 -20   XYZ
    dof rx rz
    limits (-45.0 90.0)
           (-20.0 70.0)
  end
  begin
     id 10 
     name rtoes
     direction -1.53469e-011 -4.21728e-011 1   
     length 1.18261   
     axis -90 -7.62852e-016 -20   XYZ
    dof rx
    limits (-90.0 20.0)
  end
  begin
     id 11 
     name lowerback
     direction 0.0242088 0.999437 0.0232389   
     length 2.1561   
     axis 0 0 0   XYZ
    dof rx ry rz
    limits (-20.0 45.0)
           (-30.0 30.0)
           (-30.0 30.0)
  end
  begin
     id 12 
     name upperback
     direction -0.0356893 0.999013 -0.0264323   
     length 2.14431   
     axis 0 0 0   XYZ
    dof rx ry rz
    limits (-20.0 45.0)
           (-30.0 30.0)
           (-30.0 30.0)
  end
  begin
     id 13 
     name thorax
     direction -0.0472163 0.998194 -0.0371284   
     length 2.16169   
     axis 0 0 0   XYZ
    dof rx ry rz
    limits (-20.0 45.0)
           (-30.0 30.0)
           (-30.0 30.0)
  end
  begin
     id 14 
     name lowerneck
     direction 0.00863244 0.999921 0.00911972   
     length 1.58651   
     axis 0 0 0   XYZ
    dof rx ry rz
    limits (-20.0 45.0)
           (-30.0 30.0)
           (-30.0 30.0)
  end
  begin
     id 15 
     name upperneck
     direction 0.149523 0.979068 -0.138086   
     length 1.57486   
     axis 0 0 0   XYZ
    dof rx ry rz
    limits (-20.0 45.0)
           (-30.0 30.0)
           (-30.0 30.0)
  end
  begin
     id 16
     name head
     direction 0.0445219 0.997708 -0.0509576  
     length 1.6019  
     axis 0 0 0   XYZ
    dof rx ry rz
    limits (-20.0 45.0)
           (-30.0 30.0)
           (-30.0 30.0)
  end
  begin
     id 17 
     name lclavicle
     direction 0.911271 0.381667 -0.154644  
     length 3.80848  
     axis 0 0 0   XYZ
    dof ry rz
    limits (-20.0 10.0)
           (0.0 20.0)
  end
  begin
     id 18 
     name lhumerus
     direction 1 -4.49003e-011 2.1308e-027   
     length 5.19069   
     axis 180 -30 -90   XYZ
    dof rx ry rz
    limits (-60.0 90.0)
           (-90.0 90.0)
           (-90.0 90.0)
  end
  begin
     id 19
     name lradius
     direction 1 -4.48914e-011 4.01554e-027   
     length 3.30016   
     axis 180 -30 -90   XYZ
    dof rx
    limits (-10.0 170.0)
  end
  begin
     id 20
     name lwrist
     direction 1 -4.49003e-011 1.1934e-026   
     length 1.65008   
     axis -8.46377e-015 90 90   XYZ
    dof ry
    limits (-180.0 0.0)
 end
  begin
     id 21 
     name lhand
     direction 1 -4.49034e-011 2.38659e-026   
     length 0.707698   
     axis -1.52313e-014 90 90   XYZ
    dof rx rz
    limits (-90.0 90.0)
           (-45.0 45.0)
  end
  begin
     id 22 
     name lfingers
     direction 1 -4.48691e-011 4.77775e-026   
     length 0.570564   
     axis -3.04623e-014 90 90   XYZ
    dof rx
    limits (0.0 90.0)
  end
  begin
     id 23
     name lthumb
     direction 0.707107 -6.34832e-011 0.707107   
     length 0.819219   
     axis -90 45 -1.62303e-014   XYZ
    dof rx rz
    limits (-45.0 45.0)
           (-45.0 45.0)
  end
  begin
     id 24 
     name rclavicle
     direction -0.815579 0.573708 -0.0754329   
     length 3.54371  
     axis 0 0 0   XYZ 
    dof ry rz
    limits (-10.0 20.0)
           (-20.0 0.0)
  end
  begin
     id 25 
     name rhumerus
     direction -1 -4.48956e-011 3.05351e-028  
     length 5.23924   
     axis 180 30 90   XYZ
    dof rx ry rz
    limits (-90.0 60.0)
           (-90.0 90.0)
           (-90.0 90.0)
  end
  begin
     id 26 
     name rradius
     direction -1 -4.49013e-011 3.53849e-027   
     length 3.32953   
     axis 180 30 90   XYZ
    dof rx
    limits (-10.0 170.0)
  end
  begin
     id 27 
     name rwrist
     direction -1 -4.48901e-011 1.19374e-026   
     length 1.66477   
     axis -8.46377e-015 -90 -90   XYZ
    dof ry
    limits (-180.0 0.0)
  end
  begin
     id 28
     name rhand
     direction -1 -4.48877e-011 2.38764e-026   
     length 0.607414   
     axis -1.52313e-014 -90 -90   XYZ
    dof rx rz
    limits (-90.0 90.0)
           (-45.0 45.0)
  end
  begin
     id 29
     name rfingers
     direction -1 -4.48882e-011 4.77521e-026   
     length 0.489712   
     axis -3.04623e-014 -90 -90   XYZ
    dof rx
    limits (0.0 90.0)
  end
  begin
     id 30
     name rthumb
     direction -0.707107 -6.34974e-011 0.707107   
     length 0.703132   
     axis -90 -45 1.62303e-014   XYZ
    dof rx rz
    limits (-45.0 45.0)
           (-45.0 45.0)
  end
:hierarchy
  begin
    root lhipjoint rhipjoint lowerback
    lhipjoint lfemur
    lfemur ltibia
    ltibia lfoot
    lfoot ltoes
    rhipjoint rfemur
    rfemur rtibia
    rtibia rfoot
    rfoot rtoes
    lowerback upperback
    upperback thorax
    thorax lowerneck lclavicle rclavicle
    lowerneck upperneck
    upperneck head
    lclavicle lhumerus
    lhumerus lradius
    lradius lwrist
    lwrist lhand lthumb
    lhand lfingers
    rclavicle rhumerus
    rhumerus rradius
    rradius rwrist
    rwrist rhand rthumb
    rhand rfingers
  end

#!OML:ASF E:\VariousWalksJay\Project 1\Capture day 1\Session 1\Actor2.ASF
:FULLY-SPECIFIED
:DEGREES
663
root 5.80624 17.2099 2.09814 -18.1256 20.0663 -18.2972
lowerback -2.47674 -7.90405 2.82192
upperback -4.11731 -10.5499 -1.55665
thorax -3.69257 -5.37148 -2.99887
lowerneck -12.7928 -6.67456 -6.05033
upperneck 25.7445 -11.6622 12.0247
head 11.6138 -4.57749 3.77482
rclavicle 1.59028e-014 -1.43125e-014
rhumerus 7.66004 -17.1056 3.43029
rradius 127.363
rwrist -42.5498
rhand 38.1044 -23.8593
rfingers 7.12502
rthumb 60.806 -36.7646
lclavicle 1.59028e-014 -1.43125e-014
lhumerus 39.5929 5.81347 24.9804
lradius 122.833
lwrist 29.607
lhand 26.5671 6.94341
lfingers 7.12502
lthumb 50.5959 27.8475
rfemur -78.9476 -20.0112 23.8788
rtibia 101.03
rfoot -22.1001 -7.3849
rtoes -23.9419
lfemur 34.386 4.93457 1.41969
ltibia 8.90555e-014
lfoot -29.2076 23.7537
ltoes -11.8953
664
root 5.80372 17.1985 2.14465 -18.0571 20.0591 -18.256
lowerback -2.53041 -7.89888 2.78958
upperback -4.10408 -10.544 -1.57909
thorax -3.64675 -5.36747 -3.01418
lowerneck -12.7661 -6.67452 -6.06559
upperneck 25.7604 -11.6728 12.0615
head 11.6195 -4.58036 3.79077
rclavicle -3.49861e-014 -1.59028e-015
rhumerus 7.7194 -17.126 3.44997
rradius 127.219
rwrist -42.5463
rhand 38.1582 -23.8215
rfingers 7.12502
rthumb 60.8516 -36.6756
lclavicle -3.49861e-014 -1.59028e-015
lhumerus 39.7076 5.89843 25.0364
lradius 122.864
lwrist 29.6029
lhand 26.4676 6.99121
lfingers 7.12502
lthumb 50.505 27.9447
rfemur -78.9378 -19.9857 24.0632
rtibia 101.091
rfoot -22.0409 -7.28089
rtoes -24.0203
lfemur 34.4813 5.04349 1.53396
ltibia 6.36111e-015
lfoot -29.076 23.6734
ltoes -11.8356
665
root 5.80063 17.1864 2.19326 -17.9829 20.0493 -18.2144
lowerback -2.58446 -7.89303 2.75934
upperback -4.09186 -10.5372 -1.59947
thorax -3.60169 -5.36303 -3.02852
lowerneck -12.7373 -6.67521 -6.08509
upperneck 25.7701 -11.6833 12.1008
head 11.6229 -4.58362 3.80827
rclavicle 5.24792e-014 -2.06736e-014
rhumerus 7.77698 -17.1548 3.47026
rradius 127.08
rwrist -42.5426
rhand 38.1815 -23.7722
rfingers 7.12502
rthumb 60.8714 -36.604
lclavicle 5.24792e-014 -2.06736e-014
lhumerus 39.8214 5.98719 25.0966
lradius 122.895
lwrist 29.581
lhand 26.3327 7.02616
lfingers 7.12502
lthumb 50.3818 28.0461
rfemur -78.9278 -19.9562 24.2456
rtibia 101.145
rfoot -21.9897 -7.18736
rtoes -24.1053
lfemur 34.5806 5.15367 1.65299
ltibia 2.54444e-014
lfoot -28.9586 23.5889
ltoes -11.7761
666
root 5.79697 17.1734 2.244 -17.9036 20.0363 -18.1723
lowerback -2.63895 -7.88634 2.73216
upperback -4.08012 -10.5292 -1.61843
thorax -3.5571 -5.35809 -3.04306
lowerneck -12.7065 -6.67718 -6.10982
upperneck 25.7744 -11.6947 12.1435
head 11.6245 -4.58768 3.82774
rclavicle 7.07673e-014 4.6118e-014
rhumerus 7.83222 -17.1933 3.48995
rradius 126.947
rwrist -42.5414
rhand 38.1775 -23.7157
rfingers 7.12502
rthumb 60.868 -36.5514
lclavicle 7.07673e-014 4.6118e-014
lhumerus 39.9355 6.08129 25.1595
lradius 122.927
lwrist 29.5428
lhand 26.1594 7.04648
lfingers 7.12502
lthumb 50.2235 28.1511
rfemur -78.9183 -19.9237 24.4279
rtibia 101.196
rfoot -21.9469 -7.1054
rtoes -24.1955
lfemur 34.6844 5.26551 1.777
ltibia 4.13472e-014
lfoot -28.8555 23.5016
ltoes -11.7188
667
root 5.7927 17.1595 2.29686 -17.8189 20.02 -18.129
lowerback -2.6944 -7.87878 2.70807
upperback -4.06851 -10.5201 -1.63689
thorax -3.51251 -5.35268 -3.05885
lowerneck -12.6749 -6.68024 -6.13935
upperneck 25.7759 -11.7073 12.1899
head 11.6255 -4.59245 3.84921
rclavicle 6.91771e-014 1.03368e-013
rhumerus 7.88463 -17.2426 3.50712
rradius 126.821
rwrist -42.5437
rhand 38.1501 -23.657
rfingers 7.12502
rthumb 60.8447 -36.5188
lclavicle 6.91771e-014 1.03368e-013
lhumerus 40.0513 6.18171 25.2237
lradius 122.959
lwrist 29.4923
lhand 25.9496 7.05328
lfingers 7.12502
lthumb 50.0315 28.2594
rfemur -78.91 -19.8897 24.6109
rtibia 101.246
rfoot -21.912 -7.03469
rtoes -24.2888
lfemur 34.793 5.37922 1.90531
ltibia -3.18055e-014
lfoot -28.765 23.4131
ltoes -11.6678
